<?xml version="1.0" encoding="utf-8"?>
<!-- Generator: Adobe Illustrator 26.0.1, SVG Export Plug-In . SVG Version: 6.00 Build 0)  -->
<svg version="1.1" id="Layer_1" xmlns="http://www.w3.org/2000/svg" xmlns:xlink="http://www.w3.org/1999/xlink" x="0px" y="0px"
	 viewBox="0 0 477 333" style="enable-background:new 0 0 477 333;" xml:space="preserve">
<style type="text/css">
	.st0{fill:none;stroke:#E2B3B3;stroke-width:0.443;}
	.st1{fill-rule:evenodd;clip-rule:evenodd;fill:#FDE6E1;}
	.st2{fill-rule:evenodd;clip-rule:evenodd;fill:#006BE4;}
	.st3{fill-rule:evenodd;clip-rule:evenodd;fill:#FC7341;}
	.st4{fill:none;stroke:#E2B3B3;stroke-width:0.303;}
	.st5{fill:none;stroke:#E2B3B3;stroke-width:0.457;}
	.st6{fill:none;stroke:#FFFFFF;stroke-width:0.433;}
	.st7{fill:none;stroke:#E2B3B3;stroke-width:0.49;}
	.st8{fill-rule:evenodd;clip-rule:evenodd;fill:#FDFDFD;}
	.st9{fill-rule:evenodd;clip-rule:evenodd;fill:#13CA92;}
	.st10{fill:none;stroke:#FFFFFF;stroke-width:0.478;}
	.st11{fill:none;stroke:#FFFFFF;stroke-width:0.393;}
	.st12{fill-rule:evenodd;clip-rule:evenodd;}
	.st13{fill-rule:evenodd;clip-rule:evenodd;fill:#171D21;}
	.st14{fill-rule:evenodd;clip-rule:evenodd;fill:#F7A7AB;}
	.st15{fill-rule:evenodd;clip-rule:evenodd;fill:#C9A275;}
	.st16{fill-rule:evenodd;clip-rule:evenodd;fill:#231B22;}
	.st17{fill-rule:evenodd;clip-rule:evenodd;fill:#3CCE8F;}
	.st18{fill-rule:evenodd;clip-rule:evenodd;fill:#E7ABA0;}
	.st19{fill-rule:evenodd;clip-rule:evenodd;fill:#0458AF;}
	.st20{fill-rule:evenodd;clip-rule:evenodd;fill:#0C0005;}
	.st21{fill-rule:evenodd;clip-rule:evenodd;fill:#243033;}
	.st22{fill-rule:evenodd;clip-rule:evenodd;fill:#FFFFFF;}
	.st23{fill:none;stroke:#1C1213;stroke-width:0.402;stroke-linecap:round;stroke-linejoin:round;}
	.st24{fill-rule:evenodd;clip-rule:evenodd;fill:#171223;}
	.st25{fill-rule:evenodd;clip-rule:evenodd;fill:#A7614E;}
	.st26{fill:none;stroke:#8C453A;stroke-width:0.399;stroke-linecap:round;stroke-linejoin:round;}
	.st27{fill-rule:evenodd;clip-rule:evenodd;fill:#111012;}
	.st28{fill-rule:evenodd;clip-rule:evenodd;fill:#A58250;}
	.st29{fill-rule:evenodd;clip-rule:evenodd;fill:#0A0A0A;}
	.st30{fill-rule:evenodd;clip-rule:evenodd;fill:#3CCE8F;stroke:#3CCE8F;stroke-miterlimit:10;}
	.st31{fill:none;stroke:#191818;stroke-width:0.394;stroke-linecap:round;stroke-linejoin:round;}
	.st32{fill:none;stroke:#D3C2C5;stroke-width:0.394;stroke-linecap:round;stroke-linejoin:round;}
</style>
<desc>Created with Sketch.</desc>
<g id="Marshmello_landing-page">
	<g id="Simple_landngpage" transform="translate(-542.000000, -331.000000)">
		<g id="Group-171" transform="translate(528.000000, 331.000000)">
			<path id="Stroke-1" class="st0" d="M405.5,228H106.8c-4,0-7.2-3.2-7.2-7.1V37.1c0-3.9,3.2-7.1,7.2-7.1h298.7c4,0,7.2,3.2,7.2,7.1
				v183.7C412.6,224.8,409.4,228,405.5,228z"/>
			<path id="Fill-3" class="st1" d="M422.5,213H123.8c-4,0-7.2-3.2-7.2-7.1V22.1c0-3.9,3.2-7.1,7.2-7.1h298.7c4,0,7.2,3.2,7.2,7.1
				v183.7C429.6,209.8,426.4,213,422.5,213"/>
			<path id="Fill-5" class="st2" d="M145.6,27.5c0,1.9-1.6,3.5-3.5,3.5s-3.5-1.6-3.5-3.5s1.6-3.5,3.5-3.5S145.6,25.6,145.6,27.5"/>
			<path id="Fill-7" class="st3" d="M157.6,27.5c0,1.9-1.6,3.5-3.5,3.5s-3.5-1.6-3.5-3.5s1.6-3.5,3.5-3.5S157.6,25.6,157.6,27.5"/>
			<path id="Stroke-9" class="st4" d="M170.6,27.5c0,1.9-1.6,3.5-3.5,3.5s-3.5-1.6-3.5-3.5s1.6-3.5,3.5-3.5S170.6,25.6,170.6,27.5z"
				/>
			<path id="Stroke-11" class="st5" d="M381.2,187H287c-1.9,0-3.4-1.5-3.4-3.4v-52.1c0-1.9,1.5-3.4,3.4-3.4h94.1
				c1.9,0,3.4,1.5,3.4,3.4v52.1C384.6,185.5,383.1,187,381.2,187z"/>
			<path id="Stroke-13" class="st5" d="M246.2,186H146c-1.9,0-3.4-1.6-3.4-3.5v-121c0-1.9,1.5-3.5,3.4-3.5h100.1
				c1.9,0,3.4,1.6,3.4,3.5v121.1C249.6,184.4,248.1,186,246.2,186z"/>
			<path id="Stroke-15" class="st6" d="M221.6,137h-57.9c-1.7,0-3-1.3-3-3V80c0-1.7,1.4-3,3-3h57.9c1.7,0,3,1.3,3,3v54
				C224.6,135.7,223.2,137,221.6,137z"/>
			<path id="Stroke-17" class="st6" d="M159.6,148h63"/>
			<path id="Stroke-19" class="st6" d="M159.6,159h33"/>
			<path id="Stroke-21" class="st6" d="M159.6,170h46"/>
			<path id="Stroke-23" class="st6" d="M354.3,110h-65.4c-1.8,0-3.3-1.5-3.3-3.3V41.3c0-1.8,1.5-3.3,3.3-3.3h65.4
				c1.8,0,3.3,1.5,3.3,3.3v65.4C357.6,108.5,356.1,110,354.3,110z"/>
			<path id="Stroke-25" class="st6" d="M343.2,89H299c-1.9,0-3.4-1.3-3.4-3s1.5-3,3.4-3h44.1c1.9,0,3.4,1.3,3.4,3
				C346.6,87.7,345.1,89,343.2,89z"/>
			<path id="Stroke-27" class="st6" d="M343.2,66H299c-1.9,0-3.4-1.3-3.4-3c0-1.7,1.5-3,3.4-3h44.1c1.9,0,3.4,1.3,3.4,3
				C346.6,64.7,345.1,66,343.2,66z"/>
			<path id="Fill-29" class="st2" d="M313.6,63.5c0,3-2.5,5.5-5.5,5.5s-5.5-2.5-5.5-5.5s2.5-5.5,5.5-5.5S313.6,60.5,313.6,63.5"/>
			<path id="Stroke-31" class="st0" d="M50.5,34H27.7c-1.2,0-2.1,0.9-2.1,2v11.9c0,1.1,0.9,2,2.1,2H37l7.8,8.1v-7.8l5.7-0.1
				c1.2,0,2.1-0.9,2.1-2V36C52.6,34.9,51.7,34,50.5,34z"/>
			<path id="Stroke-33" class="st7" d="M20.6,207c0,3.3-2.7,6-6,6s-6-2.7-6-6s2.7-6,6-6S20.6,203.7,20.6,207z"/>
			<path id="Stroke-35" class="st7" d="M483.6,134c0,2.8-2.2,5-5,5s-5-2.2-5-5s2.2-5,5-5S483.6,131.2,483.6,134z"/>
			<g id="Clip-38">
			</g>
			<polygon id="Stroke-37" class="st7" points="262.6,-23 272.6,-23 272.6,-33 262.6,-33 			"/>
			<path id="Fill-39" class="st2" d="M331.2,148h27.4v-27.4c0-2-1.6-3.6-3.6-3.6h-23.7c-2,0-3.6,1.6-3.6,3.6v23.8
				C327.6,146.4,329.2,148,331.2,148"/>
			<polygon id="Fill-40" class="st2" points="359.6,143 359.6,154 349.6,143 			"/>
			<path id="Fill-41" class="st8" d="M339.7,138c2.8,0,5.7,0.1,8.4-0.1c0.8-0.1,1.5-1.3,0.5-1.7c0.4-0.2,0.9-0.4,1-0.8
				c0.2-0.4,0-1-0.5-1.1c1,0.2,1.4-1.2,0.6-1.7c0.4-0.3,0.7-0.7,0.8-1.2c0.1-0.5-0.1-1-0.6-1.3c-0.3-0.2-0.7-0.2-1-0.2
				c-1.2,0-2.4,0-3.6,0c0.3-1.7,0.4-3.6-0.5-5.1c-0.3-0.5-1-1-1.7-0.7c-0.6,0.3-0.4,1.1-0.4,1.7c0.1,2.1-1.2,4.3-3.2,5.3
				C339.6,131.1,339.7,135.6,339.7,138"/>
			<polygon id="Fill-42" class="st8" points="336.6,138 340.6,138 340.6,132 336.6,132 			"/>
			<path id="Fill-43" class="st9" d="M174.9,93H139c-4.1,0-7.4-3.4-7.4-7.6V47.9c0-3.3,2.6-5.9,5.7-5.9h37.5c3.2,0,5.7,2.7,5.7,5.9
				V87C180.6,90.3,178,93,174.9,93"/>
			<polyline id="Stroke-44" class="st10" points="136.6,77 150.5,65.9 155.6,71.5 169.6,61 			"/>
			<polyline id="Stroke-45" class="st10" points="167.6,60 169.6,60.8 169.3,64 			"/>
			<path id="Fill-46" class="st9" d="M457.2,82H377c-2.4,0-4.4-2-4.4-4.4V-1.6c0-2.4,2-4.4,4.4-4.4h80.2c2.4,0,4.4,2,4.4,4.4v79.2
				C461.6,80,459.6,82,457.2,82"/>
			<path id="Stroke-47" class="st6" d="M401.6,44h19"/>
			<path id="Stroke-48" class="st6" d="M389.6,54h57"/>
			<path id="Stroke-49" class="st6" d="M389.6,65h17"/>
			<path id="Stroke-50" class="st6" d="M409.6,65h12"/>
			<path id="Stroke-51" class="st6" d="M389.6,44h7"/>
			<path id="Stroke-52" class="st6" d="M411.6,13.2v11.6c0,0.9,1.1,1.5,1.9,1.1L424,20c0.8-0.5,0.8-1.6,0-2.1l-10.5-5.8
				C412.7,11.7,411.6,12.3,411.6,13.2z"/>
			<path id="Stroke-53" class="st11" d="M431.6,18.5c0,9.1-7.4,16.5-16.5,16.5s-16.5-7.4-16.5-16.5S406,2,415.1,2
				S431.6,9.4,431.6,18.5z"/>
			<path id="Fill-54" class="st12" d="M415,252h-33.9c-2,0-3.6-1.6-3.6-3.5s1.6-3.5,3.6-3.5H415c2,0,3.6,1.6,3.6,3.5
				S417,252,415,252"/>
			<polygon id="Fill-55" class="st13" points="392.6,295 438.6,295 438.6,291 392.6,291 			"/>
			<path id="Fill-56" class="st13" d="M396.6,294.9c0.3,1.9-1,3.7-2.9,4s-3.7-1-4-2.9s1-3.7,2.9-4
				C394.4,291.7,396.2,293,396.6,294.9"/>
			<polygon id="Fill-57" class="st13" points="412.6,295 417.6,295 417.6,249 412.6,249 			"/>
			<path id="Fill-58" class="st13" d="M441.6,294.9c0.3,1.9-1,3.7-2.9,4s-3.7-1-4-2.9s1-3.7,2.9-4
				C439.4,291.7,441.2,293,441.6,294.9"/>
			<path id="Fill-59" class="st13" d="M438.2,251h-40.4c-2.8,0-4.7-2.7-4-5.3l19.3-65.7c0.5-1.8,2.1-3,4-3h40.4c2.8,0,4.7,2.7,4,5.3
				L442.1,248C441.6,249.8,440,251,438.2,251"/>
			<path id="Fill-60" class="st14" d="M432.5,251h-34.8c-2.7,0-4.7-2.7-3.9-5.3l19.1-65.7c0.5-1.8,2.1-3,3.9-3h34.8
				c2.7,0,4.7,2.7,3.9,5.3L436.4,248C435.9,249.8,434.3,251,432.5,251"/>
			<path id="Fill-61" class="st13" d="M439.1,252h-41.9c-2,0-3.5-1.6-3.5-3.5s1.6-3.5,3.5-3.5h41.9c2,0,3.5,1.6,3.5,3.5
				S441,252,439.1,252"/>
			<polygon id="Fill-62" class="st15" points="386.6,277.3 377.1,283 369.6,269.7 379.2,264 			"/>
			<path id="Fill-63" class="st16" d="M386.1,275l-12,7.1l-6.4,9.5c-1.4,2.2-1.5,5.1-0.2,7.4l24.1-14.3L386.1,275z"/>
			<path id="Fill-64" class="st16" d="M373.6,283l0.5-5c0,0,3.4-3.1,5.5,1.5L373.6,283z"/>
			<path id="Fill-65" class="st17" d="M366.7,212.1c0,0-29.5-1.5-27,9.6s21.7,56.3,21.7,56.3l24.7-6.3l-18.7-34.2l36.1-13.4
				L366.7,212.1z"/>
			<polygon id="Fill-66" class="st15" points="360.6,290 371.6,290 371.6,274 360.6,274 			"/>
			<path id="Fill-67" class="st16" d="M372.6,288h-14.5l-10.6,4.9c-2.4,1.2-3.9,3.6-3.9,6.1h29V288z"/>
			<path id="Fill-68" class="st16" d="M356.6,288.8l2.9-4.7c0,0,4.5-1,4.1,4.9L356.6,288.8z"/>
			<path id="Fill-69" class="st17" d="M394.6,219l-34.5,0.5c-3,0-5.7,1.7-7,4.4c-1,2.1-1.7,5.2-1.6,9.8c0.4,12.7,4.1,44.3,4.1,44.3
				h20.7l-2.8-33.4l38-0.5c7.8-0.1,15.1-4.4,18.4-11.4c1.4-2.9,2.1-6.3,1.3-9.8L394.6,219z"/>
			<path id="Fill-70" class="st18" d="M359.6,211.7c0,3.7-2.4,4.3-6,4.3s-7-0.5-7-4.3c0-3.7,2.9-6.7,6.5-6.7S359.6,208,359.6,211.7"
				/>
			<path id="Fill-71" class="st18" d="M364.2,215H357c-1.9,0-3.4-1.6-3.4-3.5s1.5-3.5,3.4-3.5h7.2c1.9,0,3.4,1.6,3.4,3.5
				S366.1,215,364.2,215"/>
			<path id="Fill-72" class="st19" d="M363.1,217l-2.5-12.3l28.9-6.8l5.6-31.7c0.6-3.3,4.5-6.7,7.8-6.1c3.3,0.6,6.3,4.4,5.7,7.7
				l-3.6,41.4c-0.4,2.3-2.2,4.2-4.5,4.7L363.1,217z"/>
			<path id="Fill-73" class="st2" d="M427.6,159.8c7.5,0.3,10.8,8.3,11.1,13.6l-7.2,50.6c-31.3-0.3-35.8-3.9-35.8-3.9v-51
				c0.4-4.9,2.6-9.5,8.1-10L415,158L427.6,159.8z"/>
			<path id="Fill-74" class="st15" d="M406.2,159.1l8.2-1.1l9.2,1.3c0,0-0.8,6.7-12.3,5.6c-1.7-0.2-3.4-0.7-4.6-1.7
				C405.5,162.2,405.2,160.9,406.2,159.1"/>
			<polygon id="Fill-75" class="st19" points="403.6,205 419.7,199.1 421.5,182 422.6,201.8 			"/>
			<path id="Fill-76" class="st19" d="M432.6,214c-0.1,0-0.8,4.9-0.8,4.9s-35.1,2.7-40.2-0.3L432.6,214z"/>
			<path id="Fill-77" class="st15" d="M389.6,215.3c0.2,3.7-2.1,4.4-5.7,4.7s-7-0.1-7.2-3.8s2.5-6.9,6-7.2
				C386.2,208.8,389.3,211.6,389.6,215.3"/>
			<path id="Fill-78" class="st15" d="M394.4,218.5l-7.2,0.5c-1.9,0.1-3.5-1.2-3.6-3s1.3-3.4,3.2-3.5l7.2-0.5c1.9-0.1,3.5,1.2,3.6,3
				S396.3,218.4,394.4,218.5"/>
			<path id="Fill-79" class="st2" d="M394,220l-3.4-14l33-5.4l-1.6-27.7c-1.3-6.1,4.4-11.5,8.8-10.8c4.2-0.1,7.7,3.2,8.5,9.4
				l2.3,37.8c-0.3,2.4-2,4.3-4.3,5.1L394,220z"/>
			<path id="Fill-80" class="st20" d="M336.4,178l37,3.5c1.2,0.1,2.2,1.1,2.3,2.3l3.9,33.3c0.2,1.6-1.2,3-2.8,2.9l-37.6-3.5
				c-1.2-0.1-2.2-1.1-2.3-2.3l-3.3-33.3C333.5,179.2,334.8,177.9,336.4,178"/>
			<path id="Fill-81" class="st21" d="M334.4,178l37,3.5c1.2,0.1,2.2,1.1,2.3,2.3l3.9,33.3c0.2,1.6-1.2,3-2.8,2.9l-37.6-3.5
				c-1.2-0.1-2.2-1.1-2.3-2.3l-3.3-33.3C331.5,179.2,332.8,177.9,334.4,178"/>
			<path id="Fill-82" class="st20" d="M378.4,218l25.9,2.3c0.8,0.1,1.4,0.7,1.3,1.5c-0.1,0.7-0.8,1.3-1.6,1.2l-27.4-2.3L378.4,218z"
				/>
			<path id="Fill-83" class="st22" d="M354.6,197.8c-0.2,1.9-1.9,3.3-3.8,3.2c-1.9-0.2-3.3-1.9-3.2-3.8c0.2-1.9,1.9-3.3,3.8-3.2
				C353.4,194.2,354.8,195.9,354.6,197.8"/>
			<path id="Fill-84" class="st20" d="M400.7,113c3.8-0.2,7.1,2.5,7.7,6.2c0.9-0.6,2-1.1,3.2-1.1c3.2-0.1,5.8,1.2,6.6,4.3
				c18.3-2,1.1,24.6,1.1,24.6l-1.4-10.2l-0.5-11.5c-0.7,2.3-2.7,4-5.3,4.1c-2.7,0.1-5-1.6-5.8-4c-1.3,1.3-3,2.1-4.9,2.2
				c-4.1,0.2-7.6-2.9-7.8-7C393.4,116.6,396.6,113.2,400.7,113"/>
			<path id="Fill-85" class="st15" d="M420.6,138l-0.4,20.3c-0.1,3.6-2.8,6.5-6.3,6.7c-3.8,0.2-6.9-2.9-7-6.7l-0.3-17L420.6,138z"/>
			<path id="Fill-86" class="st20" d="M419.6,143c0,0,0,12.4-11.9,10.9l-0.1-5.7L419.6,143z"/>
			<path id="Fill-87" class="st15" d="M408.9,152h0.4c6.2,0,11.3-5.1,11.3-11.3v-12.8c0-1.6-1.3-2.9-2.9-2.9h-14.9
				c-2.9,0-5.2,2.3-5.2,5.2v10.5C397.6,146.9,402.7,152,408.9,152"/>
			<path id="Fill-88" class="st20" d="M408.7,136.1c0,0.5,0.5,0.9,1,0.9s0.9-0.5,0.9-1s-0.5-0.9-1-0.9
				C409,135.1,408.6,135.6,408.7,136.1"/>
			<path id="Fill-89" class="st20" d="M399.7,136.1c0,0.5,0.5,0.9,1,0.9s0.9-0.5,0.9-1s-0.5-0.9-1-0.9
				C400,135.1,399.6,135.6,399.7,136.1"/>
			<path id="Stroke-90" class="st23" d="M402.9,137l-0.3,1.4c0,0,0.2,0.9,2,0.5"/>
			<path id="Fill-91" class="st20" d="M411.9,132.9c-0.1,0-0.1,0-0.2,0l-4.3-0.2c-0.5,0-0.8-0.4-0.8-0.9s0.4-0.8,0.9-0.8l4.3,0.2
				c0.5,0,0.8,0.4,0.8,0.9C412.6,132.5,412.3,132.9,411.9,132.9"/>
			<path id="Fill-92" class="st20" d="M401.9,132.9c-0.1,0-0.1,0-0.2,0l-2.4-0.1c-0.4,0-0.8-0.4-0.8-0.9s0.4-0.8,0.8-0.8l2.4,0.1
				c0.4,0,0.8,0.4,0.8,0.9C402.6,132.5,402.3,132.8,401.9,132.9"/>
			<path id="Stroke-93" class="st23" d="M401.6,143.6c0,0,2.7,1.7,6,0.1"/>
			<path id="Fill-94" class="st20" d="M419.3,139c0,0-6.5-1.5-5.3-11.6l-16.4-0.3l0.4-4.1l18.2,0.3c2.6,0,4.6,2.3,4.3,5L419.3,139z"
				/>
			<path id="Fill-95" class="st15" d="M417.6,138.5c0,1.9,1.6,3.5,3.5,3.5s3.5-1.6,3.5-3.5s-1.6-3.5-3.5-3.5
				S417.6,136.6,417.6,138.5"/>
			<path id="Fill-96" class="st24" d="M272.4,71.8c-3.7,3.7-9,4.3-11.9,1.4s-2.3-8.3,1.4-11.9c3.7-3.7,9-4.3,11.9-1.4
				C276.7,62.8,276.1,68.1,272.4,71.8"/>
			<path id="Fill-97" class="st3" d="M266.6,72.5c0,3-2.5,5.5-5.5,5.5s-5.5-2.5-5.5-5.5s2.5-5.5,5.5-5.5S266.6,69.5,266.6,72.5"/>
			<path id="Fill-98" class="st24" d="M235.6,82.5c0.3,8.4,8.5,15.8,17.2,15.5s16.1-8.1,15.8-16.5s-7.6-15.9-17.4-14.2
				C242.6,68.7,235.3,74.1,235.6,82.5"/>
			<path id="Fill-99" class="st25" d="M258.6,106.1L257.9,88l-11.3,0.5l0.7,18.1c0.1,3.1,2.8,5.5,5.9,5.4
				C256.3,111.9,258.7,109.2,258.6,106.1"/>
			<path id="Fill-100" class="st24" d="M259.6,89c0,0-0.6,13.8-10.7,14l-0.3-6.9L259.6,89z"/>
			<path id="Fill-101" class="st25" d="M249.7,100L249.7,100c-6.2,0.2-11.5-3.2-11.7-9.2l-0.4-10.4c-0.2-4.4,4.6-9.3,7.3-9.4
				l10.1,2.3c2.7-0.1,5,2,5.1,4.6l0.4,10.3C260.8,94.2,255,99.8,249.7,100"/>
			<path id="Fill-102" class="st16" d="M248.7,87.1c0.1,0.5,0.5,0.8,1,0.8c0.5-0.1,0.8-0.5,0.8-1c-0.1-0.5-0.5-0.8-1-0.8
				C249,86.2,248.7,86.6,248.7,87.1"/>
			<path id="Fill-103" class="st16" d="M239.7,87.1c0.1,0.5,0.5,0.8,1,0.8c0.5-0.1,0.8-0.5,0.8-1c-0.1-0.5-0.5-0.8-1-0.8
				C240,86.2,239.7,86.6,239.7,87.1"/>
			<path id="Stroke-104" class="st26" d="M243.7,88l-0.1,3c0,0,0.2,1.5,2,0.9"/>
			<path id="Fill-105" class="st16" d="M251.9,83.8c-0.1,0-0.1,0-0.2,0h-4.3c-0.5,0-0.9-0.4-0.9-0.8c0-0.5,0.4-0.8,0.9-0.8h4.3
				c0.5,0,0.9,0.4,0.9,0.8C252.6,83.4,252.3,83.7,251.9,83.8"/>
			<path id="Fill-106" class="st16" d="M242,83.8c-0.1,0-0.1,0-0.2,0h-2.4c-0.4,0-0.8-0.4-0.8-0.8c0-0.5,0.4-0.8,0.8-0.8h2.4
				c0.4,0,0.8,0.4,0.8,0.8S242.3,83.7,242,83.8"/>
			<path id="Fill-107" class="st22" d="M242.6,93h6c0,0-0.6,2.2-3.6,2C242.9,94.8,242.6,93,242.6,93"/>
			<path id="Fill-108" class="st24" d="M255.6,79.2c0,0,0.1,6.3,3.6,6.8l2.4-7L255.6,79.2z"/>
			<path id="Fill-109" class="st25" d="M264.6,86.4c0.1,1.9-1.4,3.6-3.4,3.6c-1.9,0.1-3.6-1.4-3.6-3.4c-0.1-1.9,1.4-3.6,3.4-3.6
				C262.9,82.9,264.5,84.4,264.6,86.4"/>
			<path id="Fill-110" class="st24" d="M255.5,67c0,0-21.1-1.2-20.9,13h29l-3.9-9.7L255.5,67z"/>
			<polygon id="Fill-111" class="st25" points="262.9,289 254.6,289 256.5,259 266.6,259 			"/>
			<path id="Fill-112" class="st16" d="M253.2,288h14.5l10.2,4.9c2.3,1.2,3.7,3.6,3.7,6.1l-29-0.3L253.2,288z"/>
			<path id="Fill-113" class="st16" d="M267.6,288.8l-2.9-4.7c0,0-4.5-1-4.1,4.9L267.6,288.8z"/>
			<path id="Fill-114" class="st16" d="M268.7,145c0,0,17.3,12.1,10.1,52.6L268.7,266h-15.1l0.9-108.2l-0.9-12.8H268.7z"/>
			<polygon id="Fill-115" class="st25" points="210.6,289 219.1,289 227.6,259 217.2,259 			"/>
			<path id="Fill-116" class="st16" d="M220,288h-14.5l-10.2,4.9c-2.3,1.2-3.7,3.6-3.7,6.1l29-0.3L220,288z"/>
			<path id="Fill-117" class="st16" d="M203.6,288.8l2.9-4.7c0,0,4.5-1,4.1,4.9L203.6,288.8z"/>
			<path id="Fill-118" class="st16" d="M240.6,145c0,0-7.6,6.9-13.1,37.3c-5.6,30.4-15.8,82.6-15.8,82.6l14.2,1.1l30.7-94.4
				l2.1-26.6H240.6z"/>
			<polygon id="Fill-119" class="st27" points="255.6,181.5 247.7,171 244.6,211 			"/>
			<path id="Fill-120" class="st25" d="M220.6,129c0.5,0,1.6-0.1,2.1-0.2l29.9-6.6c4.3-0.7,10.5-7.2,8.7-11.3
				c-1.3-3-4.5-4.5-7.6-3.6L223.1,118L220.6,129z"/>
			<path id="Fill-121" class="st25" d="M222.9,118.8L195.4,100l-3.8,4.9l22.6,22.5c3.9,3.5,11.4,1.3,13.1-3.7
				C228.5,120.2,226.1,120.4,222.9,118.8"/>
			<path id="Fill-122" class="st25" d="M196.1,101.3c-1.3,3.1-4.8,4.5-7.9,3.2c-3.1-1.3-4.5-4.8-3.2-7.9s4.8-4.5,7.9-3.2
				C196,94.8,197.4,98.3,196.1,101.3"/>
			<path id="Fill-123" class="st25" d="M191.6,92.7l-4.6-3.5c-0.4-0.3-0.9-0.3-1.2,0.1c-0.3,0.3-0.3,0.8,0,1.1L190,95L191.6,92.7z"
				/>
			<path id="Fill-124" class="st17" d="M241.6,108c-5.9,1.4-14,5-14,5l9.1,13l3.1-0.8L241.6,108z"/>
			<path id="Fill-125" class="st17" d="M236.6,125c0,0-1-5,0-11l-5,4.1L236.6,125z"/>
			<path id="Fill-126" class="st25" d="M294.8,148l2.8-5.1l-14-23.1c-1.8-3.1-10.1-8.8-12.6-6.2c-1.8,1.9-1.9,7.8-0.3,9.9l17.2,22.8
				L294.8,148z"/>
			<path id="Fill-127" class="st25" d="M288.8,147.7l7.9,32.3l6-0.7l-3.8-33.2c-0.1-3.8-3.8-6.3-7.2-4.7
				C289.3,142.5,288.1,145.2,288.8,147.7"/>
			<path id="Fill-128" class="st17" d="M266.5,108c0,0,9.8,1.4,16.1,10.1L268.7,132c0,0-9-8.8-3-17.1L266.5,108z"/>
			<path id="Fill-129" class="st25" d="M294.9,179.3c2.6-2.1,6.4-1.6,8.4,1c2.1,2.6,1.6,6.4-1,8.4s-6.4,1.6-8.4-1
				C291.8,185.1,292.3,181.3,294.9,179.3"/>
			<path id="Fill-130" class="st17" d="M252.9,105c0,0-6.8-0.5-16.9,5.3c0,0-2,17.3,3.4,23.7l0.8,11l27.3-0.1c0,0,1.5-19.6,7.1-24.5
				l-1.9-9.7C272.7,110.6,264.4,104.8,252.9,105"/>
			<path id="Fill-131" class="st25" d="M242.6,108.3c0,0,10.4-4.8,24-0.5l-4.6,2.4C256.1,113.3,247.9,112.1,242.6,108.3"/>
			<path id="Fill-132" class="st17" d="M269.6,128.5l-0.8,0.8c0,0-3.2-2.5-5.2-6.3l3.7,19L269.6,128.5z"/>
			<path id="Fill-133" class="st28" d="M100.8,177c0,0,6.1,8.1,2.9,17.8c-3.2,9.8-12.1-0.7-12.1-0.7L100.8,177z"/>
			<path id="Fill-134" class="st17" d="M103.3,106c0,0-0.7-3.1-7.7-6l4.9,37.8l0.5-2.3L97.2,183l10.9-0.6
				C110.5,125.1,103.3,106,103.3,106"/>
			<path id="Fill-135" class="st17" d="M81.7,95c0,0-11.7,0.5-20.3,5.8L59.6,164h41v-55.8c0-3.4-0.9-6.3-2.1-6.9
				C95.7,99.9,88.4,95.7,81.7,95"/>
			<polygon id="Fill-136" class="st17" points="59.6,131.3 65.6,123 65.6,140 59.6,138.8 			"/>
			<path id="Fill-137" class="st17" d="M59.6,155c0,0.1,11.1,0,11.1,0v-2.4h2.4c0,0,11.6,2.5,15.5-7.5l-9.4-2.1L60,147.2L59.6,155z"
				/>
			<path id="Fill-138" class="st17" d="M74.6,110.9c0,0-10.8,14.9-22.2,32.2c-1.3,1.9-4.4,3-6.6,2.9c-5.1-0.1-7.4-5.8-5.5-10.5
				c0,0,13.1-28.7,21.3-35.5C61.8,99.8,74.6,110.9,74.6,110.9"/>
			<path id="Fill-139" class="st29" d="M86.3,130.9L76.1,144c-1,1.3-0.3,3.2,1.3,3.5l8.2,1.6c0.8,0.2,1.7-0.2,2.2-0.8l10.3-13.1
				c1-1.3,0.3-3.2-1.3-3.5l-8.3-1.6C87.6,129.9,86.8,130.2,86.3,130.9"/>
			<polygon id="Fill-140" class="st28" points="73.6,143 60.3,143.2 57.6,149 72.6,148.3 			"/>
			<path id="Fill-141" class="st28" d="M72.6,142.8l8.2-5.6c0.4-0.3,1-0.3,1.4,0.1c0.4,0.4,0.5,1,0.1,1.4l-1.8,2.1l6.2,0.6
				c0.8,0.1,1.3,0.9,0.9,1.6l-0.9,1.8c-0.8,1.6-2.4,2.8-4.2,3.2c-3.2,0.7-7.9,1.5-10.7-0.2L72.6,142.8z"/>
			<path id="Fill-142" class="st30" d="M40.3,134c0,0-5,8.1-1.5,12.7c3.5,4.6,18.5,7.2,31.3,6l0.5-12.3l-14.9-2.9L40.3,134z"/>
			<path id="Fill-143" class="st28" d="M76,75l-1.4,19.8c-0.2,3.5,2.4,6.6,6.1,7.1c4,0.5,7.6-2.2,8-6l1.8-16.6L76,75z"/>
			<path id="Fill-144" class="st16" d="M76.9,82c0,0-3.2,14,11,14l0.7-7.4L76.9,82z"/>
			<path id="Fill-145" class="st16" d="M81.6,59c0,0-8.2,1.3-8,7.1S74.5,78,74.5,78l4.5-9.4L81.6,59z"/>
			<path id="Fill-146" class="st16" d="M97.6,65c0,0,6,9-2.6,13l-1.4-0.8c0,0-2.6-7,0.8-10.7L97.6,65z"/>
			<path id="Fill-147" class="st28" d="M86,93h-0.4c-6.4-0.3-11.2-5.7-10.9-12.1l0.7-13c0.1-1.6,1.5-2.9,3.1-2.8l15.1,0.8
				c2.9,0.1,5.2,2.7,5,5.6L98.1,82C97.7,88.4,92.3,93.3,86,93"/>
			<path id="Fill-148" class="st13" d="M87.5,78.1c-0.1,0.5-0.5,0.9-1.1,0.8s-0.9-0.5-0.8-1.1c0.1-0.5,0.5-0.9,1.1-0.8
				C87.2,77.1,87.6,77.6,87.5,78.1"/>
			<path id="Fill-149" class="st13" d="M94.5,79.1c-0.1,0.5-0.5,0.9-1.1,0.8c-0.5-0.1-0.9-0.5-0.8-1.1c0.1-0.5,0.5-0.9,1.1-0.8
				C94.2,78.1,94.6,78.6,94.5,79.1"/>
			<path id="Stroke-150" class="st31" d="M91.5,80l0.1,3c0,0-0.2,1.6-2,0.8"/>
			<path id="Fill-151" class="st13" d="M83.3,74.8c0.1,0,0.1,0,0.2,0l4.3,0.1c0.5,0,0.9-0.4,0.9-0.9s-0.4-0.9-0.9-0.9L83.5,73
				c-0.5,0-0.9,0.4-0.9,0.9S82.9,74.7,83.3,74.8"/>
			<path id="Fill-152" class="st13" d="M93.2,76.8c0.1,0,0.1,0,0.2,0h2.4c0.4,0,0.8-0.4,0.8-0.9S96.3,75,95.8,75h-2.4
				c-0.4,0-0.8,0.4-0.8,0.9S92.9,76.7,93.2,76.8"/>
			<path id="Stroke-153" class="st32" d="M84.6,84.1c0,0,3.3,3.5,8,0.6"/>
			<path id="Fill-154" class="st16" d="M75.6,79c0,0,6.4-3.4,6-15.1L75.8,63l-0.1,1.7L75.6,79z"/>
			<path id="Fill-155" class="st28" d="M77.6,78.7c-0.1,1.9-1.7,3.4-3.7,3.3c-1.9-0.1-3.4-1.7-3.3-3.7c0.1-1.9,1.7-3.4,3.7-3.3
				C76.2,75.1,77.7,76.7,77.6,78.7"/>
			<path id="Fill-156" class="st16" d="M78.4,69.6l4.4-2.1c0,0,10.1,5,14.6,1c4.8-4.4,4.6-13.7-4.3-15.2c-7.7-1.3-14,3.6-15.1,8
				S78.4,69.6,78.4,69.6"/>
			<polygon id="Fill-157" class="st2" points="59.6,164 59.7,177 100.6,177 100.6,164 			"/>
			<polygon id="Fill-158" class="st28" points="65.6,290 76.6,290 76.6,274 65.6,274 			"/>
			<path id="Fill-159" class="st16" d="M76.6,288H62.1l-10.6,4.9c-2.4,1.2-3.9,3.6-3.9,6.1h29V288z"/>
			<path id="Fill-160" class="st16" d="M62.6,288.8l2.9-4.7c0,0,4.5-1,4.1,4.9L62.6,288.8z"/>
			<polygon id="Fill-161" class="st2" points="82.6,170 78.2,277 61.2,277 59.6,170 			"/>
			<polygon id="Fill-162" class="st19" points="58.6,271 77.6,271 77.3,277 58.6,277 			"/>
			<polygon id="Fill-163" class="st28" points="86.6,290 97.6,290 97.6,274 86.6,274 			"/>
			<path id="Fill-164" class="st16" d="M86.6,288h14.5l10.6,4.9c2.4,1.2,3.9,3.6,3.9,6.1h-29V288z"/>
			<path id="Fill-165" class="st16" d="M100.6,288.8l-2.9-4.7c0,0-4.5-1-4.1,4.9L100.6,288.8z"/>
			<polygon id="Fill-166" class="st2" points="99.6,171 98.7,277 81.7,277 80.6,172.7 			"/>
			<polygon id="Fill-167" class="st19" points="80.6,177 86.6,177 81.4,237 			"/>
			<polygon id="Fill-168" class="st19" points="100.6,271 81.6,271 81.7,277 100.6,277 			"/>
		</g>
	</g>
</g>
</svg>
